<svg id="fa9de248-4632-409c-a63e-cbded6a8432a" data-name="图层 1" xmlns="http://www.w3.org/2000/svg" viewBox="0 0 396 396"><defs><style>.bbacff97-3f90-4262-80c1-05b45a049fea{fill:#fff;}</style></defs><rect class="bbacff97-3f90-4262-80c1-05b45a049fea" width="396" height="396"/><rect id="ff8fa3b6-7ec2-4d0d-a8d3-e4ccdcbfb757" data-name="p" x="24" y="24" width="12" height="12"/><rect id="ba005e10-9991-4e9c-93d3-016a0d398184" data-name="p" x="36" y="24" width="12" height="12"/><rect id="f83e316b-b10d-4f79-ab68-05c5dce56cd6" data-name="p" x="48" y="24" width="12" height="12"/><rect id="e07a8221-3fe7-43c5-91c3-6026448eda62" data-name="p" x="60" y="24" width="12" height="12"/><rect id="b7d0909f-c8c0-424d-bac8-5b1cc2870edb" data-name="p" x="72" y="24" width="12" height="12"/><rect id="fead28b9-9069-4b65-a841-565099a85e52" data-name="p" x="84" y="24" width="12" height="12"/><rect id="b8754697-5f32-4190-8630-aaaea048ec36" data-name="p" x="96" y="24" width="12" height="12"/><rect id="a221188f-1c21-4005-900c-d7705098b4b4" data-name="p" x="120" y="24" width="12" height="12"/><rect id="bb842cff-faf6-4ca1-acad-c3f7f5175dec" data-name="p" x="180" y="24" width="12" height="12"/><rect id="a2a6e5f0-12e8-45f1-93b3-dd35fafdde70" data-name="p" x="204" y="24" width="12" height="12"/><rect id="fc4562f5-ab03-4eed-8a63-40c473deaaee" data-name="p" x="240" y="24" width="12" height="12"/><rect id="fdbe6d70-5427-4022-89d3-a69f08320137" data-name="p" x="288" y="24" width="12" height="12"/><rect id="a9c1b49e-ae14-4064-bc8a-1979e574795c" data-name="p" x="300" y="24" width="12" height="12"/><rect id="a2b494ee-2c1c-4225-a817-eaaf0013bb34" data-name="p" x="312" y="24" width="12" height="12"/><rect id="ad4443c7-cb84-4c26-bc2e-68feaf630e35" data-name="p" x="324" y="24" width="12" height="12"/><rect id="a26e6b76-665c-4c26-9dc9-f6cf122b237a" data-name="p" x="336" y="24" width="12" height="12"/><rect id="fcf736eb-b607-427e-8310-e1c204a1ee2c" data-name="p" x="348" y="24" width="12" height="12"/><rect id="a01bafd7-bbc2-44d9-880c-e08dc669a66c" data-name="p" x="360" y="24" width="12" height="12"/><rect id="f46ec41b-cf52-4f45-9cfc-aff6ee593b32" data-name="p" x="24" y="36" width="12" height="12"/><rect id="b049e578-6d64-4156-92b9-11b385e9e298" data-name="p" x="96" y="36" width="12" height="12"/><rect id="b610d05d-d7c9-4b6e-aea7-96ed51d727a9" data-name="p" x="144" y="36" width="12" height="12"/><rect id="ec100475-a86d-4f46-af9f-87d7cfcde25c" data-name="p" x="156" y="36" width="12" height="12"/><rect id="afec7e86-cc84-4fad-a64c-38f0c46c1aa5" data-name="p" x="204" y="36" width="12" height="12"/><rect id="e0f6af4d-725e-4d1d-bd27-5fcc81daa7c9" data-name="p" x="288" y="36" width="12" height="12"/><rect id="f3a8f0c3-5569-46b3-9172-6cade606bda6" data-name="p" x="360" y="36" width="12" height="12"/><rect id="ef8a4bdd-ec60-413a-a82c-e59406ad4ea9" data-name="p" x="24" y="48" width="12" height="12"/><rect id="e2912d48-6090-4117-8feb-dc1ced58176d" data-name="p" x="48" y="48" width="12" height="12"/><rect id="b81de50a-b0fa-4e1f-a839-0353be18fa13" data-name="p" x="60" y="48" width="12" height="12"/><rect id="ff201185-ee2c-40a9-8fa2-ad5ec8388925" data-name="p" x="72" y="48" width="12" height="12"/><rect id="b5ba10ed-3413-4c1c-8a10-08f3eec89778" data-name="p" x="96" y="48" width="12" height="12"/><rect id="b35e9cac-d6db-4f7c-98aa-36fc944fd69f" data-name="p" x="168" y="48" width="12" height="12"/><rect id="a2fc1312-ce46-48e5-a896-fe3a6ff483fc" data-name="p" x="216" y="48" width="12" height="12"/><rect id="f1b8b2fb-7223-4044-9c37-ec8a9c044aff" data-name="p" x="252" y="48" width="12" height="12"/><rect id="fdf2941c-0862-4eed-8762-98a72eeeb17f" data-name="p" x="288" y="48" width="12" height="12"/><rect id="a14fde58-b4dc-419b-8272-8cae1ccbfa8f" data-name="p" x="312" y="48" width="12" height="12"/><rect id="bb5780b6-fc8c-4e0e-9b78-7f792d1bc8bc" data-name="p" x="324" y="48" width="12" height="12"/><rect id="b5f9785d-0d4a-44ca-b336-67cec9e22cf2" data-name="p" x="336" y="48" width="12" height="12"/><rect id="f0aada0a-b665-4dc3-9057-8d0f3ef6fefd" data-name="p" x="360" y="48" width="12" height="12"/><rect id="fec5dc26-0bb3-4c30-bb47-0bbf7efb8bf1" data-name="p" x="24" y="60" width="12" height="12"/><rect id="a96cd2b9-d068-465f-aa47-6c09ce106662" data-name="p" x="48" y="60" width="12" height="12"/><rect id="a4b19c55-b3a6-477b-a916-39a42d1a77ec" data-name="p" x="60" y="60" width="12" height="12"/><rect id="a8325b58-b0cf-4e53-977e-e01b32d7227b" data-name="p" x="72" y="60" width="12" height="12"/><rect id="b1742ace-ea61-4cc4-8c93-e19ddf4ea254" data-name="p" x="96" y="60" width="12" height="12"/><rect id="b5ab78f7-137e-4377-b41b-0ec05af82289" data-name="p" x="120" y="60" width="12" height="12"/><rect id="eec21cb1-12c9-43bc-8f9a-f38680bb63d5" data-name="p" x="132" y="60" width="12" height="12"/><rect id="f2478081-04ba-4780-b2eb-7bdae826a988" data-name="p" x="156" y="60" width="12" height="12"/><rect id="bcca3187-ba3c-4103-aca0-502ff7896f38" data-name="p" x="192" y="60" width="12" height="12"/><rect id="b5174248-96d9-49bb-885c-6a50faaef4ea" data-name="p" x="216" y="60" width="12" height="12"/><rect id="aa697b4b-c37c-4ab9-859b-3982faea706d" data-name="p" x="264" y="60" width="12" height="12"/><rect id="aff06a95-4486-41f5-8cc8-d7e17128ac5b" data-name="p" x="288" y="60" width="12" height="12"/><rect id="b5990b16-8ddb-44ff-85b7-5b4706d7636b" data-name="p" x="312" y="60" width="12" height="12"/><rect id="bde4badb-79b4-44d7-ab54-913d92167e6e" data-name="p" x="324" y="60" width="12" height="12"/><rect id="f73daf07-5b73-4358-ab01-3c12ce15d0a3" data-name="p" x="336" y="60" width="12" height="12"/><rect id="b1686b1c-8721-4b18-9ed5-be7e177bab93" data-name="p" x="360" y="60" width="12" height="12"/><rect id="ffaefdea-eeb5-4433-ad52-064909f1c947" data-name="p" x="24" y="72" width="12" height="12"/><rect id="fe4175bd-e95d-4485-a635-1ec71eb4f8ac" data-name="p" x="48" y="72" width="12" height="12"/><rect id="b04cd21c-2c9f-4a67-b950-1c52b2af0bdb" data-name="p" x="60" y="72" width="12" height="12"/><rect id="b5b089fd-cba1-4da5-9449-c54d04fd183a" data-name="p" x="72" y="72" width="12" height="12"/><rect id="fc77d363-ffcf-4aec-a906-69cc44737d1d" data-name="p" x="96" y="72" width="12" height="12"/><rect id="ab6c6ed6-1cea-493f-bfa6-73de48041b93" data-name="p" x="144" y="72" width="12" height="12"/><rect id="a781901f-2154-47ff-bd38-8d235334eec2" data-name="p" x="156" y="72" width="12" height="12"/><rect id="ff57d7f7-443a-4470-83a2-dc8bf375980f" data-name="p" x="168" y="72" width="12" height="12"/><rect id="b2c76163-778e-4f1f-b5b1-ed294f66d012" data-name="p" x="180" y="72" width="12" height="12"/><rect id="bf435e4e-59ca-45a5-b338-091aedadf5d9" data-name="p" x="192" y="72" width="12" height="12"/><rect id="ab181791-2e89-4860-80fa-723611a52bd6" data-name="p" x="204" y="72" width="12" height="12"/><rect id="a63b8fc7-cbe7-4dfe-816e-5230c03017ea" data-name="p" x="216" y="72" width="12" height="12"/><rect id="ead64add-3faa-4d49-b6c9-484c834d1a90" data-name="p" x="240" y="72" width="12" height="12"/><rect id="a970962f-dc3b-475f-a43a-bedc5ce2a466" data-name="p" x="252" y="72" width="12" height="12"/><rect id="bc4a1d7f-634f-47f5-b007-c63ddb9f67d7" data-name="p" x="264" y="72" width="12" height="12"/><rect id="a1b2f81b-d4fe-4b01-b73b-1f8bbc3eb84a" data-name="p" x="288" y="72" width="12" height="12"/><rect id="a86db01e-17a2-4fe8-b2c9-3714bcfeb900" data-name="p" x="312" y="72" width="12" height="12"/><rect id="a547a4ed-0151-40b6-afb0-f22f0bdc75da" data-name="p" x="324" y="72" width="12" height="12"/><rect id="fba9c4d1-06f1-4a23-8de4-981749b69401" data-name="p" x="336" y="72" width="12" height="12"/><rect id="a535e8d2-52e1-4d82-a0cb-70315f813d0a" data-name="p" x="360" y="72" width="12" height="12"/><rect id="ff607b01-c4b8-4205-9103-cadb65d37508" data-name="p" x="24" y="84" width="12" height="12"/><rect id="bc24f372-dc55-467c-a0f2-ded31d6e2ea7" data-name="p" x="96" y="84" width="12" height="12"/><rect id="b5a8c214-6fa8-4ca5-8350-6ee5dee27e39" data-name="p" x="132" y="84" width="12" height="12"/><rect id="bbe286da-433e-41bc-8798-5bc199939fa4" data-name="p" x="144" y="84" width="12" height="12"/><rect id="b569e5d1-6e2a-4d95-a4a1-750e869ecbf1" data-name="p" x="156" y="84" width="12" height="12"/><rect id="b5c5cd8f-e712-4d91-a90d-556b8e70387c" data-name="p" x="192" y="84" width="12" height="12"/><rect id="f31f3701-bb14-4459-aff8-47039aa64218" data-name="p" x="204" y="84" width="12" height="12"/><rect id="ad1a4856-96a5-41c3-be4f-03a06ccbe5f1" data-name="p" x="216" y="84" width="12" height="12"/><rect id="bc914064-ecb8-4eb9-8d54-8963baec27e4" data-name="p" x="228" y="84" width="12" height="12"/><rect id="f6258954-038a-4b3e-8145-149f1229fbe9" data-name="p" x="252" y="84" width="12" height="12"/><rect id="f7be9bc9-a09b-46e1-8f2d-fa9aa5c61fd2" data-name="p" x="288" y="84" width="12" height="12"/><rect id="ac616a0d-6ff8-4c71-9f38-2c8dabb818b0" data-name="p" x="360" y="84" width="12" height="12"/><rect id="afe0397d-5149-4a77-87b9-a5b8e869f985" data-name="p" x="24" y="96" width="12" height="12"/><rect id="ba61d23c-f2bf-459a-bf36-7327bb62c347" data-name="p" x="36" y="96" width="12" height="12"/><rect id="ee810f18-cf42-45eb-8cba-c1d182226dd4" data-name="p" x="48" y="96" width="12" height="12"/><rect id="ba335f57-c09c-44dc-9fe7-5014f4ce9855" data-name="p" x="60" y="96" width="12" height="12"/><rect id="b6d0033f-4223-4f01-b4a0-06254dd42a9a" data-name="p" x="72" y="96" width="12" height="12"/><rect id="a4b60821-cbb5-42b9-921f-c2dac8c9bf4d" data-name="p" x="84" y="96" width="12" height="12"/><rect id="e0d19d1b-1f12-4cba-86bf-d38d8f9b368f" data-name="p" x="96" y="96" width="12" height="12"/><rect id="f39374ec-e02a-4324-a1b3-be761178736c" data-name="p" x="120" y="96" width="12" height="12"/><rect id="b68530ad-cd91-47e0-a4a4-4065a47bc0be" data-name="p" x="144" y="96" width="12" height="12"/><rect id="a5122287-19c8-40ed-bc6b-c4afc675bd36" data-name="p" x="168" y="96" width="12" height="12"/><rect id="a1ca1dfb-7785-4723-b896-7434c8767ac2" data-name="p" x="192" y="96" width="12" height="12"/><rect id="a37bd6ab-e885-456a-9bb5-767f76e67763" data-name="p" x="216" y="96" width="12" height="12"/><rect id="f7747d25-1491-4615-8370-fef194bca644" data-name="p" x="240" y="96" width="12" height="12"/><rect id="ad5837da-e3c8-4b9c-be9d-da8c9765ba4e" data-name="p" x="264" y="96" width="12" height="12"/><rect id="bc348d2e-e89a-4c16-8a3b-d8782d4fd718" data-name="p" x="288" y="96" width="12" height="12"/><rect id="b42cdf7f-7d12-46d6-81ec-c5073b4b05ac" data-name="p" x="300" y="96" width="12" height="12"/><rect id="a26ea522-3b2e-4c5f-8ffa-7c3e9aabc2ee" data-name="p" x="312" y="96" width="12" height="12"/><rect id="b0f48133-a6f3-4d53-a880-6d9f8f91e419" data-name="p" x="324" y="96" width="12" height="12"/><rect id="acb4c502-e9fa-4a3d-bee3-426084d1ce7f" data-name="p" x="336" y="96" width="12" height="12"/><rect id="ba509c5a-be7b-4693-a86d-64632c83fff8" data-name="p" x="348" y="96" width="12" height="12"/><rect id="e094fd81-55bb-46c0-936f-fdaa4c562291" data-name="p" x="360" y="96" width="12" height="12"/><rect id="f2bef854-66a4-4cc4-a86e-5b2a12cb7fc6" data-name="p" x="156" y="108" width="12" height="12"/><rect id="fbd3b177-039e-431d-8cc1-6bd92da8b84c" data-name="p" x="168" y="108" width="12" height="12"/><rect id="b0dc5d6b-b63f-4f8b-8165-7a511f075755" data-name="p" x="228" y="108" width="12" height="12"/><rect id="aadafe7b-aa9d-42ef-b510-9782ea4fa70a" data-name="p" x="240" y="108" width="12" height="12"/><rect id="a0996b3c-5789-460a-9e15-711939635035" data-name="p" x="48" y="120" width="12" height="12"/><rect id="b23e9ccf-ec16-491e-9f98-648837972723" data-name="p" x="72" y="120" width="12" height="12"/><rect id="a0391e50-4c24-44a4-82f4-05d6a5646515" data-name="p" x="84" y="120" width="12" height="12"/><rect id="f9ec5c24-1b71-47bf-b933-de64f2e2272d" data-name="p" x="96" y="120" width="12" height="12"/><rect id="b3e3e68e-3e7d-4a5b-976e-710dc0679f9e" data-name="p" x="120" y="120" width="12" height="12"/><rect id="fc0de753-bd98-4bf5-8b22-3b7cc31182f5" data-name="p" x="144" y="120" width="12" height="12"/><rect id="f8d05323-3977-4c6d-8e1b-d9f8541f206e" data-name="p" x="168" y="120" width="12" height="12"/><rect id="b007ea1e-2659-4739-866f-13346267440f" data-name="p" x="192" y="120" width="12" height="12"/><rect id="f6571a07-4c4f-4ad6-832e-6e9180e1cef9" data-name="p" x="204" y="120" width="12" height="12"/><rect id="bcb6eeba-1e4e-444f-a553-124e8641805c" data-name="p" x="216" y="120" width="12" height="12"/><rect id="b559ddd7-7939-47b1-b3c1-31d5d083eb69" data-name="p" x="240" y="120" width="12" height="12"/><rect id="b84f67f0-02f5-4aa1-9131-f1b0de9bd62a" data-name="p" x="264" y="120" width="12" height="12"/><rect id="f9b2c258-238f-4f32-9e85-7b5ebe22411f" data-name="p" x="276" y="120" width="12" height="12"/><rect id="f2c34d65-b548-4a58-a53f-1b486552a093" data-name="p" x="324" y="120" width="12" height="12"/><rect id="af237992-70d7-4274-832b-85113d3cc9a2" data-name="p" x="360" y="120" width="12" height="12"/><rect id="bac23d16-2099-4d73-94b4-8c4a84647da4" data-name="p" x="60" y="132" width="12" height="12"/><rect id="a203fd06-b367-4ccb-99cd-7ea1370e5e14" data-name="p" x="84" y="132" width="12" height="12"/><rect id="b71e0fbf-c4ef-4696-acae-0e8e04e2e6cd" data-name="p" x="108" y="132" width="12" height="12"/><rect id="ebeef19a-2dc7-4a5e-9834-07fd758c4f84" data-name="p" x="132" y="132" width="12" height="12"/><rect id="e422acfa-2d38-4747-ace6-bc15a181d761" data-name="p" x="144" y="132" width="12" height="12"/><rect id="ba8dbb07-20b3-45b2-a7d2-ade18a28f457" data-name="p" x="156" y="132" width="12" height="12"/><rect id="abe7576a-f741-420b-8d20-1a8b40b17f0a" data-name="p" x="168" y="132" width="12" height="12"/><rect id="fe2e827d-fea0-4fd2-b9fc-d45712370a43" data-name="p" x="204" y="132" width="12" height="12"/><rect id="b587917d-ffd6-4eaf-b7aa-c881bfc10015" data-name="p" x="228" y="132" width="12" height="12"/><rect id="bd04114d-4d85-4120-ba92-b03ea553e3eb" data-name="p" x="240" y="132" width="12" height="12"/><rect id="fd8dab5b-9e27-402a-807b-967d24b93463" data-name="p" x="252" y="132" width="12" height="12"/><rect id="f751cf1e-82cc-4942-8a24-2627c690cf71" data-name="p" x="276" y="132" width="12" height="12"/><rect id="bfc7b4ad-ba7e-465c-a860-7890bd2eb1fb" data-name="p" x="288" y="132" width="12" height="12"/><rect id="a16bdc74-1d0a-4b2a-85d8-742ac95d5c6c" data-name="p" x="360" y="132" width="12" height="12"/><rect id="e8a41163-d975-4fee-b175-5d586099ff10" data-name="p" x="24" y="144" width="12" height="12"/><rect id="b62b5eea-8e40-43f9-8b57-ba1ea78af7e4" data-name="p" x="72" y="144" width="12" height="12"/><rect id="f75aeffc-dc03-4407-a8c3-198c199ff609" data-name="p" x="96" y="144" width="12" height="12"/><rect id="f906d8b8-5dbb-4564-b8ec-56c30f9b2591" data-name="p" x="180" y="144" width="12" height="12"/><rect id="a4f1aa5f-73e0-43d4-9c20-cd6cebe617f8" data-name="p" x="192" y="144" width="12" height="12"/><rect id="a5612cda-836f-4be3-9d83-a1805079b27d" data-name="p" x="216" y="144" width="12" height="12"/><rect id="ebaabf1a-df70-41ec-b286-89f7febbfb00" data-name="p" x="240" y="144" width="12" height="12"/><rect id="b0c2adbe-8495-4de8-ba22-fa43cb4b9f0d" data-name="p" x="264" y="144" width="12" height="12"/><rect id="ba502645-3451-4342-b1b1-68f0018c4c4b" data-name="p" x="300" y="144" width="12" height="12"/><rect id="bc823764-7815-4cbc-aaf1-c87f2ca7fe78" data-name="p" x="348" y="144" width="12" height="12"/><rect id="b00bdab4-b540-4eca-bd7b-b048e5be3f9e" data-name="p" x="360" y="144" width="12" height="12"/><rect id="aff8a4d2-5d53-4443-a493-30e61b16063a" data-name="p" x="24" y="156" width="12" height="12"/><rect id="f5ecc9c9-a1e6-4295-b27d-56604cdc73a0" data-name="p" x="36" y="156" width="12" height="12"/><rect id="e3bd3d59-d9a8-432b-ac30-8b3e0eeb91a1" data-name="p" x="48" y="156" width="12" height="12"/><rect id="bc662276-0a65-43a5-b014-33291f876e21" data-name="p" x="72" y="156" width="12" height="12"/><rect id="bc3dd947-dfa6-4cf9-a2b4-19e3d3afc5f6" data-name="p" x="120" y="156" width="12" height="12"/><rect id="a0025671-e900-4e61-a25c-21396f6b186e" data-name="p" x="132" y="156" width="12" height="12"/><rect id="e165b2c6-7703-4b23-af43-13937b692dee" data-name="p" x="168" y="156" width="12" height="12"/><rect id="b17810bb-d6d9-41d9-9c32-aad8eae41f83" data-name="p" x="180" y="156" width="12" height="12"/><rect id="bc8ed4ec-8c3e-4201-83a8-e756d2171fae" data-name="p" x="204" y="156" width="12" height="12"/><rect id="b453edb1-571f-49df-8709-eefce4e6b08a" data-name="p" x="216" y="156" width="12" height="12"/><rect id="e82fc2ac-82ff-47a5-a2d9-8c480875092c" data-name="p" x="264" y="156" width="12" height="12"/><rect id="a20ee7bd-9248-441b-96ed-ecf9628a559f" data-name="p" x="276" y="156" width="12" height="12"/><rect id="f2a3e79c-1b85-48ba-bdd4-3ef9a4ea1d47" data-name="p" x="288" y="156" width="12" height="12"/><rect id="f32d9c3f-31d7-4a23-a392-44cb60797c0d" data-name="p" x="300" y="156" width="12" height="12"/><rect id="abd42a38-27a8-4d47-b286-3d3d58b45304" data-name="p" x="324" y="156" width="12" height="12"/><rect id="ab398840-615e-4ae6-841c-247790d30e29" data-name="p" x="348" y="156" width="12" height="12"/><rect id="ae4541d0-e264-4e33-88c8-9a466ebef0f4" data-name="p" x="24" y="168" width="12" height="12"/><rect id="aac18421-9001-44d7-925e-3bd937f4211b" data-name="p" x="36" y="168" width="12" height="12"/><rect id="a9604976-583b-40a1-82fb-1269d6ce278c" data-name="p" x="60" y="168" width="12" height="12"/><rect id="f9ad1691-ebca-4dbf-9075-620c84f2082c" data-name="p" x="72" y="168" width="12" height="12"/><rect id="bec834eb-e393-47a1-9667-51b5411b4db4" data-name="p" x="84" y="168" width="12" height="12"/><rect id="aecc175f-9a72-4a39-82a6-796e901591bb" data-name="p" x="96" y="168" width="12" height="12"/><rect id="ef46d5f9-89e2-439b-9929-ba7bb390ed99" data-name="p" x="108" y="168" width="12" height="12"/><rect id="aa6356d6-ff13-4c00-8ec9-e64a2645b2ec" data-name="p" x="180" y="168" width="12" height="12"/><rect id="e84fe3cd-bf1b-4a1a-b08e-ccd909bf51d2" data-name="p" x="192" y="168" width="12" height="12"/><rect id="ebfab1c4-7d4c-4c60-81db-cb44adf09eff" data-name="p" x="228" y="168" width="12" height="12"/><rect id="f9226c62-7fb0-4485-ade5-6ea927037a3b" data-name="p" x="240" y="168" width="12" height="12"/><rect id="a59cbc64-8684-4622-a894-7912f422f66a" data-name="p" x="252" y="168" width="12" height="12"/><rect id="a4fc8f83-810b-4ba6-b262-794a0e57d589" data-name="p" x="288" y="168" width="12" height="12"/><rect id="adddb4fc-9059-4826-b969-1496837c1200" data-name="p" x="300" y="168" width="12" height="12"/><rect id="bcbd5775-67a2-4b53-a7db-85589fb957b1" data-name="p" x="24" y="180" width="12" height="12"/><rect id="ed0249a0-5f01-40b9-93ba-15bc33de2c66" data-name="p" x="36" y="180" width="12" height="12"/><rect id="bd701076-83b1-403d-b33d-22394a905102" data-name="p" x="60" y="180" width="12" height="12"/><rect id="ac082b80-8db2-49b0-ad9b-ac2705ca8ef6" data-name="p" x="84" y="180" width="12" height="12"/><rect id="b9ea9ec6-0053-443b-bbbd-5f0989f5c00c" data-name="p" x="108" y="180" width="12" height="12"/><rect id="fc6dd42c-f09f-4045-afa9-3cc33abdaafe" data-name="p" x="120" y="180" width="12" height="12"/><rect id="ae6d5ee0-c1f6-48cc-8c2f-0bca8fccae07" data-name="p" x="132" y="180" width="12" height="12"/><rect id="b2622f6a-3ba7-419a-a02e-d3e0fb10414e" data-name="p" x="156" y="180" width="12" height="12"/><rect id="f63e049f-53e1-492f-88b1-f883412d9193" data-name="p" x="180" y="180" width="12" height="12"/><rect id="a8fb05bf-307d-4d73-860f-05c5ee96d185" data-name="p" x="276" y="180" width="12" height="12"/><rect id="af52c252-2d37-49dd-a444-eba7f467fe09" data-name="p" x="288" y="180" width="12" height="12"/><rect id="ec233663-5d73-4fe6-ae1a-4587144de9f5" data-name="p" x="300" y="180" width="12" height="12"/><rect id="fff9ed0d-7041-407c-a13f-eeec7e95c14d" data-name="p" x="360" y="180" width="12" height="12"/><rect id="acdbbe28-a5f3-4ae3-b073-7f58ecd61882" data-name="p" x="24" y="192" width="12" height="12"/><rect id="a5ad9619-1c5d-4816-82c4-53dc0d5e3ff8" data-name="p" x="48" y="192" width="12" height="12"/><rect id="b7dc7ff1-9271-4053-b47c-33cd30fb4c50" data-name="p" x="84" y="192" width="12" height="12"/><rect id="e514ad4c-9c9a-4040-9ef3-e2991b68dc5c" data-name="p" x="96" y="192" width="12" height="12"/><rect id="a6e0db90-b5c5-4556-8a46-096bfea1ec19" data-name="p" x="108" y="192" width="12" height="12"/><rect id="aa7fe51c-8b5a-4f2a-af20-fd3a05a7d693" data-name="p" x="120" y="192" width="12" height="12"/><rect id="aa1e01c4-7a54-40d3-b7cb-b572608bb8a5" data-name="p" x="132" y="192" width="12" height="12"/><rect id="e2b91ef3-8764-43a9-9a00-9f0b51ceee1f" data-name="p" x="144" y="192" width="12" height="12"/><rect id="fb890346-2fb0-4109-b5f5-6e8fda7d599f" data-name="p" x="180" y="192" width="12" height="12"/><rect id="ad025032-855c-4d32-b294-856e10bc5789" data-name="p" x="192" y="192" width="12" height="12"/><rect id="b2847825-2d53-41c7-b7ee-8da3e6aef8a5" data-name="p" x="204" y="192" width="12" height="12"/><rect id="b9f8a264-d4d0-4742-a437-d8435d45e665" data-name="p" x="216" y="192" width="12" height="12"/><rect id="e67df7a7-3249-4263-ac43-d7e36d9d918e" data-name="p" x="240" y="192" width="12" height="12"/><rect id="bf84f42f-4bdc-4086-9efb-b2107b7d0855" data-name="p" x="264" y="192" width="12" height="12"/><rect id="f39e0ef1-7bec-4aef-90c8-0d452f62723e" data-name="p" x="276" y="192" width="12" height="12"/><rect id="eb479c6b-6a4c-41ed-8eca-de7aa5bfa642" data-name="p" x="288" y="192" width="12" height="12"/><rect id="fcc4ed76-9111-4db7-85c2-ca0cd9b1dd85" data-name="p" x="300" y="192" width="12" height="12"/><rect id="a51096e1-7043-4010-a741-accf85f8e269" data-name="p" x="336" y="192" width="12" height="12"/><rect id="a246ce1b-3054-4fd6-8437-93c8caf5879c" data-name="p" x="348" y="192" width="12" height="12"/><rect id="fd294897-3aa0-4d90-8300-b0bf19195011" data-name="p" x="360" y="192" width="12" height="12"/><rect id="a9d800aa-62a0-4b5b-8be8-113f3032ee74" data-name="p" x="24" y="204" width="12" height="12"/><rect id="bd9d8fed-efaf-4754-ab76-a7d73f4239d1" data-name="p" x="36" y="204" width="12" height="12"/><rect id="aef90b00-775e-44a3-83da-6d5b831cc17a" data-name="p" x="72" y="204" width="12" height="12"/><rect id="e3259d0f-5ac7-4d8c-8fa9-7d1beda96271" data-name="p" x="84" y="204" width="12" height="12"/><rect id="e55eeab0-e3e2-405f-aafd-d0d87d0f534d" data-name="p" x="108" y="204" width="12" height="12"/><rect id="e698c4d3-8410-4295-8373-b47f8e2726a2" data-name="p" x="120" y="204" width="12" height="12"/><rect id="fdc5bb3c-ce41-4b95-a674-506d6f2be1fe" data-name="p" x="132" y="204" width="12" height="12"/><rect id="ea077fb4-1e02-4415-8fa1-20dfa2d65805" data-name="p" x="156" y="204" width="12" height="12"/><rect id="bd615d8a-62cf-4724-98a3-0317b4641038" data-name="p" x="168" y="204" width="12" height="12"/><rect id="f2a00748-9986-44fb-b3c2-a902fe0efbf8" data-name="p" x="180" y="204" width="12" height="12"/><rect id="fe507f55-d611-494c-9a69-513ce9889782" data-name="p" x="192" y="204" width="12" height="12"/><rect id="bbb0ee4f-abad-4c04-84ba-a2a6c7f5cbfc" data-name="p" x="300" y="204" width="12" height="12"/><rect id="a3766b2a-115c-4bb3-9450-09f812800003" data-name="p" x="348" y="204" width="12" height="12"/><rect id="bc73d111-47eb-4a22-83bd-89bbab9957e6" data-name="p" x="48" y="216" width="12" height="12"/><rect id="e1e89198-92ff-416c-a16e-e55cfa74a4a6" data-name="p" x="72" y="216" width="12" height="12"/><rect id="f1c9c6f0-ca3f-4409-bde7-60be078c21ac" data-name="p" x="84" y="216" width="12" height="12"/><rect id="a1188090-7865-4b65-9668-88b6e11c6f03" data-name="p" x="96" y="216" width="12" height="12"/><rect id="a24cf8b4-0c43-4992-8c23-05ec9ddc2b45" data-name="p" x="108" y="216" width="12" height="12"/><rect id="f3622463-935d-422e-9fff-d274c18106ff" data-name="p" x="120" y="216" width="12" height="12"/><rect id="b45526d5-3335-4686-b9d3-56b9e3e39f81" data-name="p" x="132" y="216" width="12" height="12"/><rect id="bf7c349d-a10a-4254-b5b2-22d5a8ac04b9" data-name="p" x="168" y="216" width="12" height="12"/><rect id="eadd090f-8f21-40aa-85e4-ba1beba3805f" data-name="p" x="204" y="216" width="12" height="12"/><rect id="a4ea0412-de09-4db4-b47b-7530e41b9ada" data-name="p" x="216" y="216" width="12" height="12"/><rect id="f3088041-df10-4aea-ac90-196a894b57c5" data-name="p" x="228" y="216" width="12" height="12"/><rect id="b1b1aa77-83b7-4997-bb98-60157e73143a" data-name="p" x="240" y="216" width="12" height="12"/><rect id="a593a233-3329-49bc-a6ce-956bfc7ada05" data-name="p" x="264" y="216" width="12" height="12"/><rect id="bcb2922d-9618-44d1-88ad-b5d880aea661" data-name="p" x="276" y="216" width="12" height="12"/><rect id="b113cd69-5404-497e-b9b0-df19a3fed222" data-name="p" x="288" y="216" width="12" height="12"/><rect id="b5972900-1a62-445f-b367-14b3097fb625" data-name="p" x="312" y="216" width="12" height="12"/><rect id="a43df375-e37f-44a7-a457-06d5e620cef6" data-name="p" x="324" y="216" width="12" height="12"/><rect id="e11d2b0f-0628-43bd-b268-36629f4bea8f" data-name="p" x="348" y="216" width="12" height="12"/><rect id="b242198f-1109-45aa-9c16-6dfe4996155d" data-name="p" x="360" y="216" width="12" height="12"/><rect id="ad8be779-b69d-4491-9a74-da92de9d6af0" data-name="p" x="36" y="228" width="12" height="12"/><rect id="e9a6da64-7a61-46eb-b4fd-b24823262872" data-name="p" x="48" y="228" width="12" height="12"/><rect id="b39d2c33-b410-43a4-9f2b-305672211701" data-name="p" x="60" y="228" width="12" height="12"/><rect id="e732f03a-4924-49bd-9bb2-02b8b1605bfb" data-name="p" x="84" y="228" width="12" height="12"/><rect id="ed78d552-53fb-4802-9d41-c27a2b28373a" data-name="p" x="132" y="228" width="12" height="12"/><rect id="edf58cb3-85f4-4038-8872-364536c6e8e7" data-name="p" x="144" y="228" width="12" height="12"/><rect id="b7090a25-5df6-47a5-a6d4-3544705ab7f2" data-name="p" x="180" y="228" width="12" height="12"/><rect id="a24ad999-15c0-4a07-a50f-399c53f1fc97" data-name="p" x="192" y="228" width="12" height="12"/><rect id="a0b79159-fc5f-4507-b6ea-5743ac2e6551" data-name="p" x="228" y="228" width="12" height="12"/><rect id="a0a7178b-6871-4732-84e5-e79a9bf67789" data-name="p" x="252" y="228" width="12" height="12"/><rect id="b23476b3-b156-4e1c-b3f0-aa46d5aee30d" data-name="p" x="264" y="228" width="12" height="12"/><rect id="f8320d1b-0d94-432d-9f7c-e470c7301cb8" data-name="p" x="276" y="228" width="12" height="12"/><rect id="edfd1e8b-3aae-4906-ad24-8222636aefd2" data-name="p" x="288" y="228" width="12" height="12"/><rect id="b88df6ab-0809-45a5-b5d1-1619163ad146" data-name="p" x="336" y="228" width="12" height="12"/><rect id="b4618a3a-bb8f-47a7-8980-44e7428d1b82" data-name="p" x="348" y="228" width="12" height="12"/><rect id="f4599859-8466-42ab-b1f4-d3808135bddb" data-name="p" x="360" y="228" width="12" height="12"/><rect id="a6ac92fa-86af-43d1-b772-d32ac38e5e6d" data-name="p" x="24" y="240" width="12" height="12"/><rect id="af4f639f-1cc4-4829-b23e-50f21ea3b8c9" data-name="p" x="84" y="240" width="12" height="12"/><rect id="efe0494a-5b41-44ea-bde5-aa4c3f6303b4" data-name="p" x="96" y="240" width="12" height="12"/><rect id="ab4c9d36-cf07-48dc-b962-24f8d765b6db" data-name="p" x="156" y="240" width="12" height="12"/><rect id="b60eeab8-a772-4c72-bcb6-ba4e782497f6" data-name="p" x="168" y="240" width="12" height="12"/><rect id="e1a99259-2a75-49e6-a6d4-109a820806cd" data-name="p" x="180" y="240" width="12" height="12"/><rect id="f96583e0-2ab3-48a5-951a-99ce0dca361d" data-name="p" x="192" y="240" width="12" height="12"/><rect id="a61cf2a9-ee84-4fa6-9b20-f92886b75b3a" data-name="p" x="204" y="240" width="12" height="12"/><rect id="aa4fe854-3df3-4dc1-ba30-1bf4f473f75f" data-name="p" x="216" y="240" width="12" height="12"/><rect id="aeb78891-7486-4e64-8e48-014fa3665523" data-name="p" x="240" y="240" width="12" height="12"/><rect id="be2ecd26-0648-4bb6-9516-08575216562f" data-name="p" x="264" y="240" width="12" height="12"/><rect id="b3c18fbb-9526-480d-a349-3202ebb897b5" data-name="p" x="276" y="240" width="12" height="12"/><rect id="a393a492-8827-42fd-b1b7-9f1fa316e334" data-name="p" x="324" y="240" width="12" height="12"/><rect id="af7d4156-7acb-47c9-887c-884e29457811" data-name="p" x="348" y="240" width="12" height="12"/><rect id="ebbcc54b-6f78-419e-9f9f-7925e3858795" data-name="p" x="360" y="240" width="12" height="12"/><rect id="f8719b4e-0725-4f83-b73b-b7117105295b" data-name="p" x="36" y="252" width="12" height="12"/><rect id="bde11cee-f255-4fad-9f3d-9c1d0549036b" data-name="p" x="108" y="252" width="12" height="12"/><rect id="a7feb66a-3e86-4ec0-ac2e-0291bf2a247b" data-name="p" x="120" y="252" width="12" height="12"/><rect id="b6be17e5-911f-4e55-b43f-ff33cc2e0329" data-name="p" x="132" y="252" width="12" height="12"/><rect id="ea3ad6ff-a969-4ba4-bd8e-0cd7563071f5" data-name="p" x="144" y="252" width="12" height="12"/><rect id="b6a912c7-6003-41ba-a099-21540ea0b9a3" data-name="p" x="168" y="252" width="12" height="12"/><rect id="a9d09af3-27ef-471b-b7f2-e736203cae2a" data-name="p" x="180" y="252" width="12" height="12"/><rect id="ac1dfde3-996b-4d3c-adb4-45eb552cd1be" data-name="p" x="192" y="252" width="12" height="12"/><rect id="a20b9464-daf5-483f-88cb-e0628222905a" data-name="p" x="240" y="252" width="12" height="12"/><rect id="a518aae6-ec34-43be-8dfa-230763a6a86d" data-name="p" x="264" y="252" width="12" height="12"/><rect id="b52c1fd2-82ac-471d-8279-d74efcd0a4e0" data-name="p" x="288" y="252" width="12" height="12"/><rect id="b13414ea-4842-414d-9d66-2c76d8bca982" data-name="p" x="348" y="252" width="12" height="12"/><rect id="e81fe446-f4cc-446a-9c9f-729ca7dc29e1" data-name="p" x="360" y="252" width="12" height="12"/><rect id="bf0422b7-2b97-428c-b156-e19f85fdad0d" data-name="p" x="24" y="264" width="12" height="12"/><rect id="b7e82bdd-df3e-4a6f-b41c-a9746f88372f" data-name="p" x="96" y="264" width="12" height="12"/><rect id="e0912011-b619-4a46-a706-992d677ee931" data-name="p" x="168" y="264" width="12" height="12"/><rect id="b66386c3-1af7-47c4-8d43-99c745cf915f" data-name="p" x="204" y="264" width="12" height="12"/><rect id="aba2d6ba-197e-471a-bea9-d013abc9a679" data-name="p" x="240" y="264" width="12" height="12"/><rect id="e13ff53f-b9c6-4743-8ecc-dbe5b981bfad" data-name="p" x="264" y="264" width="12" height="12"/><rect id="be30bd44-188f-408a-a1f6-aa9f225f6689" data-name="p" x="276" y="264" width="12" height="12"/><rect id="ea398b44-ed33-4d68-96a4-17beef837200" data-name="p" x="288" y="264" width="12" height="12"/><rect id="a49077a4-2d83-4854-b706-727a429b3d26" data-name="p" x="300" y="264" width="12" height="12"/><rect id="b136896b-90c1-488e-b4cc-87b384e70ecd" data-name="p" x="312" y="264" width="12" height="12"/><rect id="b9cd1d1b-a496-4992-b64a-64b1d1da84ff" data-name="p" x="348" y="264" width="12" height="12"/><rect id="b8c396a4-1235-4964-86f9-87fa413b3f4e" data-name="p" x="360" y="264" width="12" height="12"/><rect id="fed04d00-0266-4fa9-975c-c94c8794b17c" data-name="p" x="120" y="276" width="12" height="12"/><rect id="e1ef668e-3005-4ea5-81b5-bdd38c5b37c9" data-name="p" x="132" y="276" width="12" height="12"/><rect id="f0309d8a-873a-4e59-810e-54175809bdb8" data-name="p" x="144" y="276" width="12" height="12"/><rect id="ed868024-03b9-4fb4-964e-d2d5313aac42" data-name="p" x="156" y="276" width="12" height="12"/><rect id="a8404c54-e07e-40e8-827b-6bb34a69d985" data-name="p" x="168" y="276" width="12" height="12"/><rect id="a798b172-4a20-43e6-a92a-3f0df7209825" data-name="p" x="192" y="276" width="12" height="12"/><rect id="ae0d627a-218d-4620-9ada-661b793eef4c" data-name="p" x="228" y="276" width="12" height="12"/><rect id="b3cf1fc2-35fe-4ef9-a470-5d21c4dce1c4" data-name="p" x="252" y="276" width="12" height="12"/><rect id="b5453393-3e47-49eb-8ec7-c419267fcddc" data-name="p" x="264" y="276" width="12" height="12"/><rect id="b6ce4022-eadc-446d-9514-23644eed0058" data-name="p" x="312" y="276" width="12" height="12"/><rect id="a7344256-974e-49ec-a140-9716274a61b3" data-name="p" x="360" y="276" width="12" height="12"/><rect id="b85d78ce-c7c6-422c-9c8f-6efbbe53572a" data-name="p" x="24" y="288" width="12" height="12"/><rect id="a9f0c74a-9ca6-45e0-b4be-366a1ad532a2" data-name="p" x="36" y="288" width="12" height="12"/><rect id="f5043fbf-24e1-46fb-8fcd-2ce413bde15e" data-name="p" x="48" y="288" width="12" height="12"/><rect id="b0dc0c90-0ec2-4ab5-8fc2-953a5016c089" data-name="p" x="60" y="288" width="12" height="12"/><rect id="af1a5366-cbfa-4646-8f9f-4c53c2425b72" data-name="p" x="72" y="288" width="12" height="12"/><rect id="ae1e4e8f-295e-4fce-9aa0-feb83f1bfbcf" data-name="p" x="84" y="288" width="12" height="12"/><rect id="e4321b2e-deae-4e9b-8dc2-04e03327e2af" data-name="p" x="96" y="288" width="12" height="12"/><rect id="f2e894bf-a5b3-4561-a8c3-cffd2f1009aa" data-name="p" x="132" y="288" width="12" height="12"/><rect id="ac38bb83-2d98-4087-8da6-f8f3aba6f501" data-name="p" x="144" y="288" width="12" height="12"/><rect id="b84d4255-05c0-42e7-941d-34a25921513e" data-name="p" x="180" y="288" width="12" height="12"/><rect id="ab93d699-6946-4a8c-a828-3bf2c13201ae" data-name="p" x="204" y="288" width="12" height="12"/><rect id="a9838e5c-df36-470d-ab3b-1bd1ce12d447" data-name="p" x="216" y="288" width="12" height="12"/><rect id="a091e6c6-c9a9-4b76-9c96-1806ff41de0a" data-name="p" x="252" y="288" width="12" height="12"/><rect id="fd079684-bc29-4277-8501-66b9520a9f33" data-name="p" x="264" y="288" width="12" height="12"/><rect id="f2dd8df3-8ae9-4158-8d0d-ed27348553c8" data-name="p" x="288" y="288" width="12" height="12"/><rect id="a4bb3d66-a8be-411c-a5d1-8e3de243624e" data-name="p" x="312" y="288" width="12" height="12"/><rect id="f42894e9-9431-4818-a59e-c4664ba6342a" data-name="p" x="336" y="288" width="12" height="12"/><rect id="ab7d3793-746e-4a26-98d4-7d1a79399690" data-name="p" x="348" y="288" width="12" height="12"/><rect id="eb6a90e4-b4b1-4b4c-878f-ab6a72cc10c7" data-name="p" x="360" y="288" width="12" height="12"/><rect id="bd000a03-aa28-4576-82ea-091504e5d452" data-name="p" x="24" y="300" width="12" height="12"/><rect id="bec55afa-3f9c-4f51-bd1d-4149555422d8" data-name="p" x="96" y="300" width="12" height="12"/><rect id="bd185ca5-633c-4bd9-9ec7-aecee601fdb0" data-name="p" x="120" y="300" width="12" height="12"/><rect id="eed346ec-0b26-4c8c-81d7-a3cd23be1681" data-name="p" x="132" y="300" width="12" height="12"/><rect id="e3fb95c8-3f96-43db-a640-0fe29d5b214a" data-name="p" x="192" y="300" width="12" height="12"/><rect id="a6880eee-6b6b-4a31-a782-063a06b1f105" data-name="p" x="204" y="300" width="12" height="12"/><rect id="b473cf8a-5892-492e-a861-4eb34f10b624" data-name="p" x="216" y="300" width="12" height="12"/><rect id="ba931da8-97fb-4873-b2c9-cfe4591bb835" data-name="p" x="228" y="300" width="12" height="12"/><rect id="a5e11688-554e-40b2-9555-4e2a088cd23d" data-name="p" x="240" y="300" width="12" height="12"/><rect id="bf6e71d6-a13e-4805-98ca-b582c40a8d6c" data-name="p" x="264" y="300" width="12" height="12"/><rect id="e9f68c9b-c422-4111-a6b6-88b7083b8f07" data-name="p" x="312" y="300" width="12" height="12"/><rect id="a916836f-6d1c-4903-9b49-1e790548c9ad" data-name="p" x="348" y="300" width="12" height="12"/><rect id="b4c6da8a-f0eb-494a-8285-3f001a6538c8" data-name="p" x="360" y="300" width="12" height="12"/><rect id="f2950c2c-2c29-452a-9cf4-a38439370d63" data-name="p" x="24" y="312" width="12" height="12"/><rect id="a17d9807-29b2-4388-91bb-8c35dacc50db" data-name="p" x="48" y="312" width="12" height="12"/><rect id="abef7588-d9e7-4325-bc45-033d835d1e83" data-name="p" x="60" y="312" width="12" height="12"/><rect id="e5572c97-a187-4d23-8624-c7112cd1a7d2" data-name="p" x="72" y="312" width="12" height="12"/><rect id="fe982b29-63a3-4804-93a1-bbe6952d81e7" data-name="p" x="96" y="312" width="12" height="12"/><rect id="ef2f77b5-1c87-45c5-a4cc-15edb95ff4c5" data-name="p" x="120" y="312" width="12" height="12"/><rect id="bb3d99d5-a242-4248-b9d0-aa8e26539d64" data-name="p" x="144" y="312" width="12" height="12"/><rect id="b8cb7f48-ea96-47b2-8125-8d315181ba14" data-name="p" x="156" y="312" width="12" height="12"/><rect id="a719645e-96be-46a8-a3f9-88de866b5bc7" data-name="p" x="180" y="312" width="12" height="12"/><rect id="fb9df6bb-1315-4d04-a5e1-8cffcd5bf4b7" data-name="p" x="216" y="312" width="12" height="12"/><rect id="fd05bea7-4598-4ede-b705-a7b22e950fca" data-name="p" x="228" y="312" width="12" height="12"/><rect id="a1863fa8-1e9c-4e1b-87e2-08ad8810c004" data-name="p" x="240" y="312" width="12" height="12"/><rect id="af9babb1-88e6-4fcf-87bb-0143a0554de3" data-name="p" x="264" y="312" width="12" height="12"/><rect id="b88e7110-ef32-41e0-b62b-fa54bd6ebc2b" data-name="p" x="276" y="312" width="12" height="12"/><rect id="fdf798e7-a888-492a-82e5-c65358c7182e" data-name="p" x="288" y="312" width="12" height="12"/><rect id="a13a42fe-8b55-43fb-b2e2-327c3469002b" data-name="p" x="300" y="312" width="12" height="12"/><rect id="a9dea818-ab85-4f0f-9b67-a0a638d66547" data-name="p" x="312" y="312" width="12" height="12"/><rect id="bb6d61ee-2ba5-4df3-b7c2-f0f96293216b" data-name="p" x="324" y="312" width="12" height="12"/><rect id="a9d0a537-6981-488f-b708-d74b20f32716" data-name="p" x="348" y="312" width="12" height="12"/><rect id="be169358-e780-4318-9bb7-02b7056fb8c4" data-name="p" x="24" y="324" width="12" height="12"/><rect id="ec313aa1-1d7f-4cee-9e9b-f4bc50bb3041" data-name="p" x="48" y="324" width="12" height="12"/><rect id="f89822e7-a972-4740-9087-968dbc994d74" data-name="p" x="60" y="324" width="12" height="12"/><rect id="fd05d328-6abe-466b-acb3-c7d430d15f50" data-name="p" x="72" y="324" width="12" height="12"/><rect id="b68ebb26-0f4d-4436-aa9b-2ea26663b561" data-name="p" x="96" y="324" width="12" height="12"/><rect id="a390c255-b0cd-43c0-8859-2810d68542c1" data-name="p" x="132" y="324" width="12" height="12"/><rect id="a2a53206-f692-42fb-9e53-85666d3dff44" data-name="p" x="144" y="324" width="12" height="12"/><rect id="f7c52f80-46b6-4394-8c1a-b466536feec4" data-name="p" x="168" y="324" width="12" height="12"/><rect id="b3fd78b5-2bc2-47b9-9d71-9740535f4d61" data-name="p" x="180" y="324" width="12" height="12"/><rect id="b6ec8cba-2ff7-4f4d-8107-788f71f5ad3b" data-name="p" x="204" y="324" width="12" height="12"/><rect id="ef1a6ba5-b695-4790-855f-785234288759" data-name="p" x="228" y="324" width="12" height="12"/><rect id="a63a4662-37f2-4a00-8f15-74a0745c6899" data-name="p" x="240" y="324" width="12" height="12"/><rect id="a09c8939-48fc-4d5c-96d6-6a935296ae81" data-name="p" x="264" y="324" width="12" height="12"/><rect id="ebbf2f85-d942-40fc-bf8d-9dfc86d91d6e" data-name="p" x="276" y="324" width="12" height="12"/><rect id="a775c663-9acd-4838-bf34-a9e7f8c9d56e" data-name="p" x="312" y="324" width="12" height="12"/><rect id="b0b8a752-9472-42d0-9bd2-82f4ecc80e23" data-name="p" x="336" y="324" width="12" height="12"/><rect id="e6884a8b-fa47-4f75-aa4e-2fd5d051ae1f" data-name="p" x="24" y="336" width="12" height="12"/><rect id="fff139a9-5f90-43d7-a10a-f95cd60e5caf" data-name="p" x="48" y="336" width="12" height="12"/><rect id="a6b1519e-6d4a-49bf-a499-d70e9dc2bcd4" data-name="p" x="60" y="336" width="12" height="12"/><rect id="b83fac61-ae70-4976-8107-70dc92489992" data-name="p" x="72" y="336" width="12" height="12"/><rect id="b337b105-0eb7-4c13-b936-a9303d9dfc11" data-name="p" x="96" y="336" width="12" height="12"/><rect id="b1d57c41-279a-4790-a46a-1287ca17a89a" data-name="p" x="120" y="336" width="12" height="12"/><rect id="ad7afbe6-a51f-493e-9e08-ba7c8909591e" data-name="p" x="132" y="336" width="12" height="12"/><rect id="ad7e88d2-c81f-468d-a620-a9abe83f7fe5" data-name="p" x="156" y="336" width="12" height="12"/><rect id="ba8f2c49-fa57-4f01-bfd8-4e9641d22542" data-name="p" x="168" y="336" width="12" height="12"/><rect id="bdbd7130-b175-48f6-bc3e-ddc5fa51474d" data-name="p" x="228" y="336" width="12" height="12"/><rect id="b64aa4ef-b675-4231-a5b5-e1eb3cd413e7" data-name="p" x="252" y="336" width="12" height="12"/><rect id="a30d958a-16b1-4e26-a4ba-d88e6f7c4b67" data-name="p" x="300" y="336" width="12" height="12"/><rect id="f9025b9e-a105-4647-9fba-484b3e20f6e8" data-name="p" x="312" y="336" width="12" height="12"/><rect id="a1650647-6808-4ddb-8b0f-e67efbe49d71" data-name="p" x="360" y="336" width="12" height="12"/><rect id="ba702828-829a-4008-a95d-fca6e8e7071f" data-name="p" x="24" y="348" width="12" height="12"/><rect id="a4debf19-c46e-4c9f-bb7b-72d86b43cf59" data-name="p" x="96" y="348" width="12" height="12"/><rect id="f277afbd-1ac5-4b3e-93cd-cfce77a8c498" data-name="p" x="144" y="348" width="12" height="12"/><rect id="e299f441-788e-42ce-b36f-780ca6835ebc" data-name="p" x="156" y="348" width="12" height="12"/><rect id="f817e3c3-53ed-4f7a-a323-e31f31eb3bb3" data-name="p" x="192" y="348" width="12" height="12"/><rect id="e1880011-0a32-4533-a676-3e238b235f68" data-name="p" x="204" y="348" width="12" height="12"/><rect id="f3f994ec-9cd7-4b7f-a118-c78eabeff605" data-name="p" x="276" y="348" width="12" height="12"/><rect id="b425a219-443d-4bc2-94aa-db65d406068d" data-name="p" x="288" y="348" width="12" height="12"/><rect id="a4627b18-ae9f-41fd-9842-80001880bcb2" data-name="p" x="300" y="348" width="12" height="12"/><rect id="bd4a5eb3-d370-42ff-ba45-bf6ac569bac8" data-name="p" x="348" y="348" width="12" height="12"/><rect id="b065ba9e-cab0-4c33-a567-523cf24f9bcd" data-name="p" x="24" y="360" width="12" height="12"/><rect id="f10416db-6104-4c6f-a066-b6f502f35b3b" data-name="p" x="36" y="360" width="12" height="12"/><rect id="e9c6d8dc-6f3a-4e99-bd27-853b307bd298" data-name="p" x="48" y="360" width="12" height="12"/><rect id="ad8c078a-b61b-4b2e-ba5d-1d386b2070e1" data-name="p" x="60" y="360" width="12" height="12"/><rect id="aca8e31c-e21b-48cc-a475-c25691e051a4" data-name="p" x="72" y="360" width="12" height="12"/><rect id="e425d1b0-7949-486e-a2c4-a9ba3d725e8e" data-name="p" x="84" y="360" width="12" height="12"/><rect id="ebb5893d-1b0e-4d34-ad62-6082d7d3581a" data-name="p" x="96" y="360" width="12" height="12"/><rect id="ba0423c2-c0b9-41a7-9892-852b29dfe2c3" data-name="p" x="132" y="360" width="12" height="12"/><rect id="f6d0e0dc-f73f-4dd1-bcac-5ef16b690137" data-name="p" x="156" y="360" width="12" height="12"/><rect id="b755a485-d011-4b2a-b77c-49b71ef0d5fa" data-name="p" x="168" y="360" width="12" height="12"/><rect id="f5e13f0c-24ac-4e1d-8481-3ac3010e4ca2" data-name="p" x="180" y="360" width="12" height="12"/><rect id="b65ad4f9-c094-49bf-8de2-7b27a6869da8" data-name="p" x="192" y="360" width="12" height="12"/><rect id="b0427250-e8e6-468f-8d9e-ad6605b497ea" data-name="p" x="252" y="360" width="12" height="12"/><rect id="a0def107-64b9-434d-a2c9-325b61cf7675" data-name="p" x="264" y="360" width="12" height="12"/><rect id="b22bfc92-d7c3-4f7e-9e36-dfcb285ac665" data-name="p" x="276" y="360" width="12" height="12"/><rect id="b7feb687-06c2-47fc-a6c8-788ad4b4bf0f" data-name="p" x="288" y="360" width="12" height="12"/><rect id="b73f9a1c-0ffc-4766-bb95-486c4039558e" data-name="p" x="312" y="360" width="12" height="12"/><rect id="ae239961-8925-4001-914e-f59260f177f1" data-name="p" x="324" y="360" width="12" height="12"/><rect id="f3aaefd7-5858-46f2-a9b2-feff49712fc3" data-name="p" x="348" y="360" width="12" height="12"/><rect id="a2472422-1796-4f3e-bc92-e84e1df17b0d" data-name="p" x="360" y="360" width="12" height="12"/></svg>