<svg xmlns="http://www.w3.org/2000/svg" viewBox="0 0 954.73047 282.20001"><path d="M262.2,274.2H20a12.03528,12.03528,0,0,1-12-12V20A12.03529,12.03529,0,0,1,20,8H262.3a12.03529,12.03529,0,0,1,12,12V262.3A12.168,12.168,0,0,1,262.2,274.2Z" style="fill:none;stroke:#dc2f00;stroke-miterlimit:10;stroke-width:16px"/><path d="M29.3,38.6v1.5a5.54882,5.54882,0,0,0,5.5,5.5h11a5.54881,5.54881,0,0,1,5.5,5.5h0a5.54882,5.54882,0,0,1-5.5,5.5h-11a5.54881,5.54881,0,0,0-5.5,5.5v4a5.54881,5.54881,0,0,0,5.5,5.5h11a5.5488,5.5488,0,0,1,5.5,5.5l.2,61.2c.2,36.8.2,73.9,0,82.5l-.2,10.4a5.52856,5.52856,0,0,1-5.5,5.4h-11a5.54882,5.54882,0,0,0-5.5,5.5v3a5.54883,5.54883,0,0,0,5.5,5.5h48a5.54882,5.54882,0,0,0,5.5-5.5v-3a5.54882,5.54882,0,0,0-5.5-5.5h-11a5.484,5.484,0,0,1-5.5-5.468V231.1l-.2-29.3c-.2-19.1-.2-56.2,0-82.5l.2-42.2a5.54882,5.54882,0,0,1,5.5-5.5h11a5.5488,5.5488,0,0,0,5.5-5.5v-4a5.5488,5.5488,0,0,0-5.5-5.5h-11a5.54886,5.54886,0,0,1-5.5-5.5h0a5.54882,5.54882,0,0,1,5.5-5.5h11a5.5488,5.5488,0,0,0,5.5-5.5v-3a5.5488,5.5488,0,0,0-5.5-5.5h-48a5.54882,5.54882,0,0,0-5.5,5.5Z" style="fill:#dc2f00"/><path d="M29.3,153.6v64a6.95692,6.95692,0,0,0,6.91355,7h0q.0432.00024.08643,0h0a6.957,6.957,0,0,0,7-6.91358q.00027-.04319,0-.08642V89.6a6.95692,6.95692,0,0,0-6.91357-7q-.04323-.00027-.08643,0h0a6.95691,6.95691,0,0,0-7,6.91355h0q-.00027.04322,0,.08643Z" style="fill:#dc2f00"/><path d="M74.3,153.6v64a6.95692,6.95692,0,0,0,6.91358,7h0q.04323.00024.08642,0h0a6.95692,6.95692,0,0,0,7-6.91358h0q.00027-.04319,0-.08642V89.6a6.95689,6.95689,0,0,0-6.91351-7h0q-.0432-.00027-.08644,0h0a6.95691,6.95691,0,0,0-7,6.91357q-.00023.04321,0,.08643Z" style="fill:#dc2f00"/><path d="M176.6,164.7a5.4214,5.4214,0,0,0-4.5,2.1c-1.9,2.4-1.9,3.4-1.9,18v11.7a2.94646,2.94646,0,0,1-2.8919,3q-.054.001-.1081,0h-49a2.94646,2.94646,0,0,0-3,2.89191q-.001.054,0,.10809v5a2.94647,2.94647,0,0,0,2.89191,3q.054.001.10809,0h49a2.94645,2.94645,0,0,1,3,2.89191q.001.054,0,.10809v34a2.94644,2.94644,0,0,1-2.89189,3h0q-.054.001-.10811,0h-63a2.94644,2.94644,0,0,1-3-2.89189h0q-.001-.054,0-.10811v-8a2.94648,2.94648,0,0,1,2.89193-3q.054-.001.10807,0h49a2.94645,2.94645,0,0,0,3-2.89191q.001-.054,0-.10809v-6a2.94646,2.94646,0,0,0-2.8919-3h0q-.054-.001-.10808,0h-49a2.94645,2.94645,0,0,1-3-2.89191q-.001-.054,0-.10809v-33a2.94648,2.94648,0,0,1,2.89193-3q.054-.001.10807,0h49a2.94646,2.94646,0,0,0,3-2.89191q.001-.054,0-.10809v-6a2.94648,2.94648,0,0,0-2.89191-3h0q-.054-.001-.10808,0h-49a2.94646,2.94646,0,0,1-3-2.89191q-.001-.054,0-.10809v-8a2.94648,2.94648,0,0,1,2.89193-3q.054-.001.10807,0h54.3a2.72351,2.72351,0,0,0,2.1-.9l3.8-3.9,3.8-3.9a3.33292,3.33292,0,0,0,.9-2.1V125.6a2.94644,2.94644,0,0,0-2.89189-3h0q-.054-.001-.10809,0h-48a2.94644,2.94644,0,0,0-3,2.89191q-.001.054,0,.10809v5a2.94647,2.94647,0,0,0,2.89193,3q.054.001.10807,0h39a2.9464,2.9464,0,0,1,3,2.8918v0h0q.001.054,0,.10809v8a2.94648,2.94648,0,0,1-2.89191,3h0q-.054.001-.10808,0h-54a2.94648,2.94648,0,0,1-3-2.89194q-.001-.054,0-.10806v-59a2.94644,2.94644,0,0,1,2.89187-3h0q.054-.001.1081,0h24a2.94646,2.94646,0,0,0,3-2.89191q.001-.054,0-.10809v-5a2.94646,2.94646,0,0,0-2.89191-3q-.054-.001-.10809,0h-23a2.94644,2.94644,0,0,1-3-2.89189v0h0q-.001-.054,0-.10809v-34a2.94642,2.94642,0,0,1,2.89187-3h0q.054-.001.1081,0h16a2.94643,2.94643,0,0,1,3,2.89186h0q.001.054,0,.10809v8a2.94646,2.94646,0,0,1-2.89191,3q-.054.001-.10809,0h-2a2.94645,2.94645,0,0,0-3,2.89189h0q-.001.054,0,.10809v5a2.94644,2.94644,0,0,0,2.89189,3h0q.054.001.1081,0h9a2.94645,2.94645,0,0,0,3-2.8919h0q.001-.054,0-.10809v-19a2.94646,2.94646,0,0,1,2.8919-3q.054-.001.1081,0h8a2.94646,2.94646,0,0,1,3,2.8919h0q.001.054,0,.10808v19a2.94647,2.94647,0,0,0,2.8919,3q.054.001.1081,0h8a2.94645,2.94645,0,0,0,3-2.8919h0q.001-.054,0-.10809v-5a2.94648,2.94648,0,0,0-2.89191-3q-.054-.001-.10809,0h-1a2.94644,2.94644,0,0,1-3-2.8919v0q-.001-.054,0-.10809v-8a2.94646,2.94646,0,0,1,2.8919-3q.054-.001.1081,0h15a2.94646,2.94646,0,0,1,3,2.8919h0q.001.054,0,.10809v34a2.94648,2.94648,0,0,1-2.89191,3q-.054.001-.10809,0h-22a2.94643,2.94643,0,0,0-3,2.89187v0h0q-.001.054,0,.10811v5a2.94648,2.94648,0,0,0,2.8919,3q.054.001.1081,0h10a2.94645,2.94645,0,0,1,3,2.89189h0q.001.054,0,.1081v9a2.94646,2.94646,0,0,1-2.89191,3q-.054.001-.10809,0h-39a2.94644,2.94644,0,0,0-3,2.89187v0h0q-.001.054,0,.10811v5a2.94646,2.94646,0,0,0,2.8919,3q.054.001.1081,0h48a2.94646,2.94646,0,0,0,3-2.8919q.001-.054,0-.1081v-24a2.94644,2.94644,0,0,1,2.89189-3h0q.054-.001.10809,0h9a2.94643,2.94643,0,0,1,3,2.89187h0q.001.054,0,.1081v24a2.94648,2.94648,0,0,0,2.89191,3q.054.001.10809,0h48a2.94646,2.94646,0,0,0,3-2.8919q.001-.054,0-.1081v-5a2.94646,2.94646,0,0,0-2.8919-3q-.054-.001-.1081,0h-39a2.94646,2.94646,0,0,1-3-2.8919q-.001-.054,0-.1081v-9a2.94644,2.94644,0,0,1,2.89189-3h0q.054-.001.1081,0h10a2.94646,2.94646,0,0,0,3-2.8919q.001-.054,0-.1081v-5a2.94647,2.94647,0,0,0-2.89191-3q-.054-.001-.10809,0h-22a2.94646,2.94646,0,0,1-3-2.8919q-.001-.054,0-.1081v-34a2.94647,2.94647,0,0,1,2.8919-3q.054-.001.1081,0h15a2.94645,2.94645,0,0,1,3,2.89189h0q.001.054,0,.10809v8a2.94646,2.94646,0,0,1-2.89191,3q-.054.001-.10809,0h-1a2.94646,2.94646,0,0,0-3,2.8919h0q-.001.054,0,.10808v5a2.94647,2.94647,0,0,0,2.8919,3q.054.001.1081,0h8a2.94645,2.94645,0,0,0,3-2.89191h0q.001-.054,0-.10809v-19a2.94645,2.94645,0,0,1,2.8919-3q.054-.001.1081,0h8a2.94644,2.94644,0,0,1,3,2.89187h0q.001.054,0,.10809v19a2.94647,2.94647,0,0,0,2.8919,3q.054.001.1081,0h9a2.94645,2.94645,0,0,0,3-2.89191h0q.001-.054,0-.10809v-5a2.94648,2.94648,0,0,0-2.89191-3q-.054-.001-.10809,0h-2a2.94644,2.94644,0,0,1-3-2.8919v0q-.001-.054,0-.10808v-8a2.94645,2.94645,0,0,1,2.8919-3q.054-.001.1081,0h16a2.94643,2.94643,0,0,1,3,2.89185h0q.001.054,0,.10809v34a2.94649,2.94649,0,0,1-2.89191,3q-.054.001-.10809,0h-23a2.94645,2.94645,0,0,0-3,2.89189q-.001.054,0,.10811v5a2.94648,2.94648,0,0,0,2.8919,3q.054.001.1081,0h24a2.94645,2.94645,0,0,1,3,2.89189h0q.001.054,0,.10811v59a2.94649,2.94649,0,0,1-2.89191,3q-.054.001-.10809,0h-54a2.94648,2.94648,0,0,1-3-2.89191q-.001-.054,0-.10809v-8a2.94647,2.94647,0,0,1,2.8919-3q.054-.001.1081,0h39a2.94648,2.94648,0,0,0,3-2.89191h0q.001-.054,0-.10806v-5a2.94648,2.94648,0,0,0-2.89191-3h0q-.054-.001-.10806,0h-48a2.94643,2.94643,0,0,0-3,2.89189v0q-.001.054,0,.1081v23.1a3.333,3.333,0,0,0,.9,2.1l3.8,3.9,3.8,3.9a2.72351,2.72351,0,0,0,2.1.9H249a2.94646,2.94646,0,0,1,3,2.89191q.001.054,0,.10809v8a2.94648,2.94648,0,0,1-2.89191,3q-.054.001-.10809,0H200a2.94646,2.94646,0,0,0-3,2.89191q-.001.054,0,.10809v6a2.94648,2.94648,0,0,0,2.89191,3q.054.001.10809,0h49a2.94646,2.94646,0,0,1,3,2.89191q.001.054,0,.10809v33a2.94648,2.94648,0,0,1-2.89191,3q-.054.001-.10809,0H200a2.94646,2.94646,0,0,0-3,2.89191q-.001.054,0,.10809v6a2.94648,2.94648,0,0,0,2.89191,3q.054.001.10809,0h49a2.94646,2.94646,0,0,1,3,2.89191q.001.054,0,.10809v8a2.94644,2.94644,0,0,1-2.89185,3h0q-.05407.001-.10812,0H186a2.94646,2.94646,0,0,1-3-2.89191h0q-.001-.054,0-.10809v-34a2.94646,2.94646,0,0,1,2.89191-3h0q.054-.001.10806,0h49a2.94648,2.94648,0,0,0,3-2.89191q.001-.054,0-.10809v-5a2.94644,2.94644,0,0,0-2.89189-3h0q-.054-.001-.10808,0H186a2.94648,2.94648,0,0,1-3-2.89191q-.001-.054,0-.10809V184.8c0-14.6.1-15.6-1.9-18A5.4216,5.4216,0,0,0,176.6,164.7Z" style="fill:#dc2f00"/><path d="M417.46582,176.31738q-8.19286-14.04053-17.082-26.44238l-9.82813,90.55762H368.55957l9.126-85.64356a280.72469,280.72469,0,0,1-31.58985,45.39551l-18.9541-12.168a351.3839,351.3839,0,0,0,47.97071-66.68945H341.88379l2.33984-20.82569h39.3125l3.27539-28.78222q-14.97655,1.404-36.97168,3.042l2.8086-20.82617q20.12109-1.86987,30.65332-3.042,3.74121-.23,12.40234-1.16993,15.90967-1.634,43.29-5.38183l-2.57422,21.52783q-12.87158,2.10645-27.14355,3.51025l-3.51075,31.12207H436.8877l-2.57325,20.8257H403.66016l-.23438,1.87207A501.2869,501.2869,0,0,1,435.25,164.38281Zm97.34375,53.81934H431.97363l18.252-155.1416q1.40483-10.2942,5.499-14.85889,4.09131-4.563,12.28516-4.563H515.044q8.18847,0,12.63574,4.4458,4.44286,4.448,4.44629,12.63623a33.286,33.286,0,0,1-.23438,4.4458ZM510.36426,76.6333H471.28613L456.30957,209.07715h39.3125Z" style="fill:#dc2f00"/><path d="M610.28125,203.46094q-15.44385,4.21142-35.09961,8.6582-24.80566,6.08789-35.334,8.18945l2.57422-21.7617q1.86914-.46582,4.44531-1.05273,2.57226-.58155,6.084-1.28711l11.23242-2.57422,6.78614-57.09571h-20.124l2.33985-20.59179h20.124L578.458,72.88916H555.05762l2.33984-20.124h65.05176l-2.33984,20.124H599.2832l-5.14746,43.05615h20.35742l-2.33984,20.5918H591.7959l-6.084,52.18164L599.2832,185.209q3.2754-.70166,13.1045-3.27637ZM674.39746,92.07715h20.82617l-1.63769,14.74219h21.76172q13.10156,0,18.25195,5.61572a12.60431,12.60431,0,0,1,3.042,6.20117,36.50393,36.50393,0,0,1,.46778,8.541l-4.44532,32.75926h14.97559l-2.33985,19.65625H693.35156a126.4196,126.4196,0,0,0,21.64551,27.37793,241.3204,241.3204,0,0,0,30.30273,24.10254l-19.89062,12.168a248.95515,248.95515,0,0,1-25.97363-23.63379,148.6684,148.6684,0,0,1-23.40039-31.59082,118.32166,118.32166,0,0,1-26.67578,32.99414,180.50021,180.50021,0,0,1-30.41993,21.29395l-20.124-12.40137a210.34374,210.34374,0,0,0,32.52637-20.3584,100.01271,100.01271,0,0,0,25.97363-29.95215H611.45117l2.10645-19.65625H624.79l4.212-33.22752q1.40332-10.29345,6.55176-15.09277,5.14454-4.793,15.91211-4.79687h21.29395Zm-49.13965-14.04,2.33985-19.42189h21.99609L651.93359,39.895H672.292l-2.34082,18.72021H705.9873l2.33985-18.48584h20.3584L726.3457,58.61523H750.916L748.5752,78.03711H724.00586L722.13379,94.417h-20.3584l1.87207-16.37988H667.61133L665.73926,94.417h-20.5918l1.87207-16.37988Zm23.63379,47.9702-4.21191,33.9292h20.59179a102.33494,102.33494,0,0,0,3.50977-18.01709l1.63867-15.91211Zm67.626,0H691.24609l-2.10644,19.65577a121.84751,121.84751,0,0,1-2.57422,14.27343h25.74023Z" style="fill:#dc2f00"/><path d="M820.41406,124.13525a196.16544,196.16544,0,0,1,28.78223,27.61182l-16.61426,14.04a261.42669,261.42669,0,0,0-19.1875-21.99609l-11.4668,96.4082H779.93262l10.2959-86.11232a317.66583,317.66583,0,0,1-26.44239,19.42188l-14.27441-16.84766a196.85454,196.85454,0,0,0,39.3125-28.89892q17.31446-16.49706,26.208-34.749a7.31367,7.31367,0,0,0,.93554-3.042q0-.93237-1.16992-1.40381a10.92122,10.92122,0,0,0-3.74414-.46826H769.87012l2.3399-21.06h26.91016l-7.25391-28.07959h22.46387l7.25391,28.07959H825.796q8.89014,0,13.45508,3.39307,4.563,3.39476,4.56347,9.71094,0,4.91454-3.27636,11.93408A207.7196,207.7196,0,0,1,820.41406,124.13525Zm79.56055,91.02588h54.75586l-2.57422,21.76172H825.5625l2.57324-21.76172h47.97071l10.998-92.1958H846.38867l2.57324-21.99609h40.71582l7.25489-60.13819h24.10156l-7.25391,60.13819h40.71582l-2.33984,21.99609H910.97266Z" style="fill:#dc2f00"/></svg>