<svg xmlns="http://www.w3.org/2000/svg" viewBox="0 0 627.58887 204.28171"><path d="M90.32419,137.35789q-8.19288-14.04053-17.082-26.44239l-9.82813,90.55761H41.41794l9.126-85.64354a280.72523,280.72523,0,0,1-31.58985,45.3955L0,149.05708A351.38436,351.38436,0,0,0,47.9707,82.36762H14.74216L17.082,61.54193H56.3945l3.27539-28.78222q-14.97656,1.404-36.97168,3.042l2.8086-20.82617q20.12109-1.86987,30.65332-3.042,3.74122-.23,12.40234-1.16993,15.90966-1.634,43.29-5.38183l-2.57422,21.52783Q96.40668,29.01608,82.1347,30.41987L78.624,61.54194h31.1221l-2.57324,20.8257H76.51852l-.23437,1.87207a501.28081,501.28081,0,0,1,31.82422,41.18361Zm97.34375,53.81933H104.832L123.084,36.03561q1.40484-10.2942,5.499-14.85889,4.09131-4.563,12.28516-4.563h47.03421q8.18847,0,12.63576,4.4458,4.44289,4.448,4.44629,12.63624a33.28767,33.28767,0,0,1-.23438,4.4458ZM183.22263,37.67381H144.1445L129.16794,170.11765h39.3125Z" style="fill:#dc2f00"/><path d="M283.13962,164.50143q-15.44385,4.21143-35.09961,8.65821-24.80569,6.08787-35.334,8.18945l2.57422-21.7617q1.86914-.46579,4.44533-1.05274,2.57223-.58153,6.084-1.28711l11.23242-2.57422,6.78613-57.09571h-20.124L226.044,76.98582h20.124l5.14844-43.05616H227.916l2.33984-20.124h65.05178l-2.33985,20.124h-20.8262l-5.14746,43.05616h20.35742l-2.33984,20.59179H264.65427l-6.084,52.18164,13.57129-3.50975q3.27538-.70167,13.10449-3.27637ZM347.25583,53.11765H368.082l-1.63769,14.74219H388.206q13.10152,0,18.252,5.61572a12.60452,12.60452,0,0,1,3.042,6.20117,36.504,36.504,0,0,1,.46777,8.541L405.52243,120.977H420.498l-2.33985,19.65624H366.20993a126.42069,126.42069,0,0,0,21.64551,27.37793,241.31932,241.31932,0,0,0,30.30273,24.10254l-19.89062,12.168a248.95747,248.95747,0,0,1-25.97364-23.63379,148.66924,148.66924,0,0,1-23.40039-31.59082,118.32144,118.32144,0,0,1-26.67578,32.99414,180.5014,180.5014,0,0,1-30.41992,21.29394l-20.124-12.40136a210.34307,210.34307,0,0,0,32.52637-20.3584,100.01271,100.01271,0,0,0,25.97363-29.95215H284.30954L286.416,120.977h11.23236l4.212-33.22753q1.40333-10.29345,6.55176-15.09278,5.14454-4.793,15.91211-4.79686h21.29394Zm-49.13965-14.04L300.456,19.65576h21.9961L324.792.9355h20.3584l-2.34082,18.72022H378.8457l2.33985-18.48584H401.544L399.2041,19.65574h24.57031l-2.34082,19.42187H396.86423L394.99216,55.4575h-20.3584l1.87207-16.37988H340.4697L338.59763,55.4575h-20.5918l1.87207-16.37988ZM321.75,87.04785l-4.21191,33.92922h20.59179A102.335,102.335,0,0,0,341.63962,102.96l1.63867-15.91211Zm67.626,0H364.10446L361.998,106.70362a121.85674,121.85674,0,0,1-2.57422,14.27344H385.164Z" style="fill:#dc2f00"/><path d="M493.27243,85.17575a196.16621,196.16621,0,0,1,28.78226,27.61182l-16.61426,14.04a261.42525,261.42525,0,0,0-19.1875-21.9961l-11.4668,96.40822H452.791l10.29589-86.11232a317.66117,317.66117,0,0,1-26.44238,19.42187l-14.27441-16.84765a196.85338,196.85338,0,0,0,39.3125-28.89892q17.31445-16.49708,26.208-34.749a7.31369,7.31369,0,0,0,.93555-3.042q0-.93237-1.16992-1.40381a10.9214,10.9214,0,0,0-3.74414-.46826H442.72849l2.3399-21.06h26.91016L464.72464,0h22.46387l7.2539,28.07959h4.212q8.89018,0,13.45508,3.39307,4.56308,3.39474,4.56347,9.71093.00009,4.91456-3.27636,11.93409A207.72212,207.72212,0,0,1,493.27243,85.17575ZM572.833,176.20164h54.75586l-2.57422,21.76172H498.42087l2.57324-21.76172h47.97067l10.998-92.1958H519.247l2.57324-21.9961h40.71582l7.255-60.13819h24.10156l-7.25391,60.13819h40.71582l-2.33984,21.9961H583.831Z" style="fill:#dc2f00"/></svg>