<svg xmlns="http://www.w3.org/2000/svg" viewBox="0 0 282.29999 282.20001"><path d="M262.2,274.2H20a12.03528,12.03528,0,0,1-12-12V20A12.03529,12.03529,0,0,1,20,8H262.3a12.03529,12.03529,0,0,1,12,12V262.3A12.168,12.168,0,0,1,262.2,274.2Z" style="fill:none;stroke:#dc2f00;stroke-miterlimit:10;stroke-width:16px"/><path d="M29.3,38.6v1.5a5.54882,5.54882,0,0,0,5.5,5.5h11a5.54881,5.54881,0,0,1,5.5,5.5h0a5.54882,5.54882,0,0,1-5.5,5.5h-11a5.54881,5.54881,0,0,0-5.5,5.5v4a5.54881,5.54881,0,0,0,5.5,5.5h11a5.5488,5.5488,0,0,1,5.5,5.5l.2,61.2c.2,36.8.2,73.9,0,82.5l-.2,10.4a5.52856,5.52856,0,0,1-5.5,5.4h-11a5.54882,5.54882,0,0,0-5.5,5.5v3a5.54883,5.54883,0,0,0,5.5,5.5h48a5.54882,5.54882,0,0,0,5.5-5.5v-3a5.54882,5.54882,0,0,0-5.5-5.5h-11a5.484,5.484,0,0,1-5.5-5.468V231.1l-.2-29.3c-.2-19.1-.2-56.2,0-82.5l.2-42.2a5.54882,5.54882,0,0,1,5.5-5.5h11a5.5488,5.5488,0,0,0,5.5-5.5v-4a5.5488,5.5488,0,0,0-5.5-5.5h-11a5.54884,5.54884,0,0,1-5.5-5.5h0a5.54882,5.54882,0,0,1,5.5-5.5h11a5.5488,5.5488,0,0,0,5.5-5.5v-3a5.5488,5.5488,0,0,0-5.5-5.5h-48a5.54882,5.54882,0,0,0-5.5,5.5Z" style="fill:#dc2f00"/><path d="M29.3,153.6v64a6.95692,6.95692,0,0,0,6.91355,7h0q.0432.00024.08643,0h0a6.957,6.957,0,0,0,7-6.91358q.00027-.04319,0-.08642V89.6a6.95692,6.95692,0,0,0-6.91357-7q-.04323-.00027-.08643,0h0a6.95691,6.95691,0,0,0-7,6.91355h0q-.00027.04322,0,.08643Z" style="fill:#dc2f00"/><path d="M74.3,153.6v64a6.95692,6.95692,0,0,0,6.91358,7h0q.04323.00024.08642,0h0a6.95692,6.95692,0,0,0,7-6.91358h0q.00027-.04319,0-.08642V89.6a6.95689,6.95689,0,0,0-6.91353-7h0q-.0432-.00027-.08644,0h0a6.95693,6.95693,0,0,0-7,6.91357q-.00023.04321,0,.08643Z" style="fill:#dc2f00"/><path d="M176.6,164.7a5.4214,5.4214,0,0,0-4.5,2.1c-1.9,2.4-1.9,3.4-1.9,18v11.7a2.94646,2.94646,0,0,1-2.8919,3q-.054.001-.1081,0h-49a2.94646,2.94646,0,0,0-3,2.89191q-.001.054,0,.10809v5a2.94647,2.94647,0,0,0,2.89191,3q.054.001.10809,0h49a2.94645,2.94645,0,0,1,3,2.89191q.001.054,0,.10809v34a2.94644,2.94644,0,0,1-2.89189,3h0q-.054.001-.10811,0h-63a2.94644,2.94644,0,0,1-3-2.89189h0q-.001-.054,0-.10811v-8a2.94648,2.94648,0,0,1,2.89193-3q.054-.001.10807,0h49a2.94645,2.94645,0,0,0,3-2.89191q.001-.054,0-.10809v-6a2.94646,2.94646,0,0,0-2.8919-3h0q-.054-.001-.10808,0h-49a2.94645,2.94645,0,0,1-3-2.89191q-.001-.054,0-.10809v-33a2.94648,2.94648,0,0,1,2.89193-3q.054-.001.10807,0h49a2.94646,2.94646,0,0,0,3-2.89191q.001-.054,0-.10809v-6a2.94647,2.94647,0,0,0-2.89191-3h0q-.054-.001-.10808,0h-49a2.94646,2.94646,0,0,1-3-2.89191q-.001-.054,0-.10809v-8a2.94648,2.94648,0,0,1,2.89193-3q.054-.001.10807,0h54.3a2.72351,2.72351,0,0,0,2.1-.9l3.8-3.9,3.8-3.9a3.33292,3.33292,0,0,0,.9-2.1V125.6a2.94644,2.94644,0,0,0-2.8919-3q-.054-.001-.1081,0h-48a2.94645,2.94645,0,0,0-3,2.89191q-.001.054,0,.10809v5a2.94647,2.94647,0,0,0,2.89193,3q.054.001.10807,0h39a2.94641,2.94641,0,0,1,3,2.89184v0h0q.001.054,0,.10809v8a2.94646,2.94646,0,0,1-2.8919,3h0q-.054.001-.10808,0h-54a2.94647,2.94647,0,0,1-3-2.89194q-.001-.054,0-.10806v-59a2.94644,2.94644,0,0,1,2.8919-3q.054-.001.1081,0h24a2.94645,2.94645,0,0,0,3-2.89191q.001-.054,0-.10809v-5a2.94646,2.94646,0,0,0-2.89191-3q-.054-.001-.10809,0h-23a2.94644,2.94644,0,0,1-3-2.89191q-.001-.054,0-.10809v-34a2.94644,2.94644,0,0,1,2.8919-3q.054-.001.1081,0h16a2.94643,2.94643,0,0,1,3,2.89187h0q.001.054,0,.10809v8a2.94646,2.94646,0,0,1-2.89191,3q-.054.001-.10809,0h-2a2.94645,2.94645,0,0,0-3,2.89189h0q-.001.054,0,.10809v5a2.94645,2.94645,0,0,0,2.8919,3q.054.001.1081,0h9a2.94645,2.94645,0,0,0,3-2.89191h0q.001-.054,0-.10809v-19a2.94646,2.94646,0,0,1,2.8919-3q.054-.001.1081,0h8a2.94645,2.94645,0,0,1,3,2.89189h0q.001.054,0,.10809v19a2.94648,2.94648,0,0,0,2.8919,3q.054.001.1081,0h8a2.94645,2.94645,0,0,0,3-2.89191h0q.001-.054,0-.10809v-5a2.94646,2.94646,0,0,0-2.89191-3q-.054-.001-.10809,0h-1a2.94646,2.94646,0,0,1-3-2.89191q-.001-.054,0-.10809v-8a2.94646,2.94646,0,0,1,2.8919-3q.054-.001.1081,0h15a2.94645,2.94645,0,0,1,3,2.89189h0q.001.054,0,.10809v34a2.94646,2.94646,0,0,1-2.89191,3q-.054.001-.10809,0h-22a2.94644,2.94644,0,0,0-3,2.8919q-.001.054,0,.1081v5a2.94648,2.94648,0,0,0,2.8919,3q.054.001.1081,0h10a2.94645,2.94645,0,0,1,3,2.89189h0q.001.054,0,.1081v9a2.94645,2.94645,0,0,1-2.89191,3q-.054.001-.10809,0h-39a2.94644,2.94644,0,0,0-3,2.89189h0q-.001.054,0,.10811v5a2.94646,2.94646,0,0,0,2.8919,3q.054.001.1081,0h48a2.94646,2.94646,0,0,0,3-2.89191q.001-.054,0-.10809v-24a2.94644,2.94644,0,0,1,2.8919-3q.054-.001.1081,0h9a2.94643,2.94643,0,0,1,3,2.89189h0q.001.054,0,.1081v24a2.94648,2.94648,0,0,0,2.8919,3q.054.001.1081,0h48a2.94646,2.94646,0,0,0,3-2.89191q.001-.054,0-.10809v-5a2.94645,2.94645,0,0,0-2.89191-3q-.054-.001-.10809,0h-39a2.94647,2.94647,0,0,1-3-2.89191q-.001-.054,0-.10809v-9a2.94644,2.94644,0,0,1,2.8919-3q.054-.001.1081,0h10a2.94646,2.94646,0,0,0,3-2.89191q.001-.054,0-.10809v-5a2.94645,2.94645,0,0,0-2.89191-3q-.054-.001-.10809,0h-22a2.94647,2.94647,0,0,1-3-2.89191q-.001-.054,0-.10809v-34a2.94647,2.94647,0,0,1,2.8919-3q.054-.001.1081,0h15a2.94645,2.94645,0,0,1,3,2.89189h0q.001.054,0,.10809v8a2.94646,2.94646,0,0,1-2.89191,3q-.054.001-.10809,0h-1a2.94645,2.94645,0,0,0-3,2.89189v0h0q-.001.054,0,.10809v5a2.94648,2.94648,0,0,0,2.8919,3q.054.001.1081,0h8a2.94646,2.94646,0,0,0,3-2.89191h0q.001-.054,0-.10809v-19a2.94645,2.94645,0,0,1,2.8919-3q.054-.001.1081,0h8a2.94643,2.94643,0,0,1,3,2.89188h0q.001.054,0,.10809v19a2.94649,2.94649,0,0,0,2.8919,3q.054.001.1081,0h9a2.94646,2.94646,0,0,0,3-2.89191h0q.001-.054,0-.10809v-5a2.94646,2.94646,0,0,0-2.89191-3q-.054-.001-.10809,0h-2a2.94646,2.94646,0,0,1-3-2.89192q-.001-.054,0-.10808v-8a2.94646,2.94646,0,0,1,2.8919-3q.054-.001.1081,0h16a2.94642,2.94642,0,0,1,3,2.89187v0h0q.001.054,0,.10809v34a2.94646,2.94646,0,0,1-2.89191,3q-.054.001-.10809,0h-23a2.94646,2.94646,0,0,0-3,2.8919q-.001.054,0,.1081v5a2.94648,2.94648,0,0,0,2.8919,3q.054.001.1081,0h24a2.94645,2.94645,0,0,1,3,2.8919h0q.001.054,0,.1081v59a2.94648,2.94648,0,0,1-2.89191,3q-.054.001-.10809,0h-54a2.94648,2.94648,0,0,1-3-2.89191q-.001-.054,0-.10809v-8a2.94648,2.94648,0,0,1,2.8919-3q.054-.001.1081,0h39a2.94646,2.94646,0,0,0,3-2.89191v0h0q.001-.054,0-.10806v-5a2.94647,2.94647,0,0,0-2.89191-3h0q-.054-.001-.10806,0h-48a2.94645,2.94645,0,0,0-3,2.8919q-.001.054,0,.1081v23.1a3.333,3.333,0,0,0,.9,2.1l3.8,3.9,3.8,3.9a2.72352,2.72352,0,0,0,2.1.9H249a2.94646,2.94646,0,0,1,3,2.8919q.001.054,0,.1081v8a2.94648,2.94648,0,0,1-2.89191,3q-.054.001-.10809,0H200a2.94646,2.94646,0,0,0-3,2.8919q-.001.054,0,.1081v6a2.94648,2.94648,0,0,0,2.89191,3q.054.001.10809,0h49a2.94646,2.94646,0,0,1,3,2.8919q.001.054,0,.1081v33a2.94648,2.94648,0,0,1-2.89191,3q-.054.001-.10809,0H200a2.94646,2.94646,0,0,0-3,2.8919q-.001.054,0,.1081v6a2.94648,2.94648,0,0,0,2.89191,3q.054.001.10809,0h49a2.94646,2.94646,0,0,1,3,2.8919q.001.054,0,.1081v8a2.94644,2.94644,0,0,1-2.89185,3h0q-.05407.001-.10813,0H186a2.94645,2.94645,0,0,1-3-2.8919h0q-.001-.054,0-.1081v-34a2.94645,2.94645,0,0,1,2.89191-3h0q.054-.001.10807,0h49a2.94648,2.94648,0,0,0,3-2.89191q.001-.054,0-.10809v-5a2.94644,2.94644,0,0,0-2.8919-3h0q-.054-.001-.10808,0H186a2.94648,2.94648,0,0,1-3-2.89191q-.001-.054,0-.10809V184.8c0-14.6.1-15.6-1.9-18A5.4216,5.4216,0,0,0,176.6,164.7Z" style="fill:#dc2f00"/></svg>