<?xml version="1.0" encoding="utf-8"?>
<!-- Generator: Adobe Illustrator 26.3.1, SVG Export Plug-In . SVG Version: 6.00 Build 0)  -->
<svg version="1.1" id="图层_1" xmlns="http://www.w3.org/2000/svg" xmlns:xlink="http://www.w3.org/1999/xlink" x="0px" y="0px"
	 viewBox="0 0 300 300" style="enable-background:new 0 0 300 300;" xml:space="preserve">
<style type="text/css">
	.st0{fill:none;stroke:#DC2F00;stroke-width:16;stroke-miterlimit:10;}
	.st1{fill:#DC2F00;}
</style>
<g id="图层_2_00000055681651214378638340000015609724818724921741_">
</g>
<g>
	<path class="st0" d="M271,283.1H28.8c-6.6,0-12-5.4-12-12V28.9c0-6.6,5.4-12,12-12h242.3c6.6,0,12,5.4,12,12v242.3
		C283,277.7,277.6,283.1,271,283.1z"/>
	<g>
		<path class="st1" d="M38.1,47.5V49c0,3,2.5,5.5,5.5,5.5h5.5h5.5c3,0,5.5,2.5,5.5,5.5l0,0l0,0c0,3-2.5,5.5-5.5,5.5h-5.5h-5.5
			c-3,0-5.5,2.5-5.5,5.5v2v2c0,3,2.5,5.5,5.5,5.5h5.5h5.5c3,0,5.5,2.5,5.5,5.5l0.2,61.2c0.2,36.8,0.2,73.9,0,82.5l-0.2,10.4
			c-0.1,3-2.5,5.4-5.5,5.4h-5.5h-5.5c-3,0-5.5,2.5-5.5,5.5v1.5v1.5c0,3,2.5,5.5,5.5,5.5h24h24c3,0,5.5-2.5,5.5-5.5v-1.5V251
			c0-3-2.5-5.5-5.5-5.5h-5.5h-5.5c-3,0-5.5-2.4-5.5-5.5l-0.2-29.3c-0.2-19.1-0.2-56.2,0-82.5L75.1,86c0-3,2.5-5.5,5.5-5.5h5.5h5.5
			c3,0,5.5-2.5,5.5-5.5v-2v-2c0-3-2.5-5.5-5.5-5.5h-5.5h-5.5c-3,0-5.5-2.5-5.5-5.5l0,0l0,0c0-3,2.5-5.5,5.5-5.5h5.5h5.5
			c3,0,5.5-2.5,5.5-5.5v-1.5V46c0-3-2.5-5.5-5.5-5.5h-24h-24c-3,0-5.5,2.5-5.5,5.5V47.5z"/>
		<path class="st1" d="M38.1,162.5v64c0,3.9,3.1,7,7,7l0,0l0,0c3.9,0,7-3.1,7-7v-64v-64c0-3.9-3.1-7-7-7l0,0l0,0c-3.9,0-7,3.1-7,7
			V162.5z"/>
		<path class="st1" d="M83.1,162.5v64c0,3.9,3.1,7,7,7l0,0l0,0c3.9,0,7-3.1,7-7v-64v-64c0-3.9-3.1-7-7-7l0,0l0,0c-3.9,0-7,3.1-7,7
			V162.5z"/>
		<path class="st1" d="M185.4,173.6c-2.2,0-3.3,0.8-4.5,2.1c-1.9,2.4-1.9,3.4-1.9,18v11.7c0,1.7-1.3,3-3,3h-24.5H127
			c-1.7,0-3,1.3-3,3v2.5v2.5c0,1.7,1.3,3,3,3h24.5H176c1.7,0,3,1.3,3,3v17v17c0,1.7-1.3,3-3,3h-31.5H113c-1.7,0-3-1.3-3-3v-4v-4
			c0-1.7,1.3-3,3-3h24.5H162c1.7,0,3-1.3,3-3v-3v-3c0-1.7-1.3-3-3-3h-24.5H113c-1.7,0-3-1.3-3-3v-16.5v-16.5c0-1.7,1.3-3,3-3h24.5
			H162c1.7,0,3-1.3,3-3v-3v-3c0-1.7-1.3-3-3-3h-24.5H113c-1.7,0-3-1.3-3-3v-4v-4c0-1.7,1.3-3,3-3h26.3h28c0.8,0,1.6-0.3,2.1-0.9
			l3.8-3.9l3.8-3.9c0.5-0.6,0.9-1.3,0.9-2.1v-12.4v-10.7c0-1.7-1.3-3-3-3h-24h-24c-1.7,0-3,1.3-3,3v2.5v2.5c0,1.7,1.3,3,3,3h19.5
			h19.5c1.7,0,3,1.3,3,3v4v4c0,1.7-1.3,3-3,3h-27h-27c-1.7,0-3-1.3-3-3V124V94.5c0-1.7,1.3-3,3-3h12h12c1.7,0,3-1.3,3-3V86v-2.5
			c0-1.7-1.3-3-3-3h-11.5h-11.5c-1.7,0-3-1.3-3-3v-17v-17c0-1.7,1.3-3,3-3h8h8c1.7,0,3,1.3,3,3v4v4c0,1.7-1.3,3-3,3h-1h-1
			c-1.7,0-3,1.3-3,3V60v2.5c0,1.7,1.3,3,3,3h4.5h4.5c1.7,0,3-1.3,3-3V53v-9.5c0-1.7,1.3-3,3-3h4h4c1.7,0,3,1.3,3,3V53v9.5
			c0,1.7,1.3,3,3,3h4h4c1.7,0,3-1.3,3-3V60v-2.5c0-1.7-1.3-3-3-3h-0.5h-0.5c-1.7,0-3-1.3-3-3v-4v-4c0-1.7,1.3-3,3-3h7.5h7.5
			c1.7,0,3,1.3,3,3v17v17c0,1.7-1.3,3-3,3h-11h-11c-1.7,0-3,1.3-3,3V86v2.5c0,1.7,1.3,3,3,3h5h5c1.7,0,3,1.3,3,3V99v4.5
			c0,1.7-1.3,3-3,3h-19.5h-19.5c-1.7,0-3,1.3-3,3v2.5v2.5c0,1.7,1.3,3,3,3h24h24c1.7,0,3-1.3,3-3v-12v-12c0-1.7,1.3-3,3-3
			c0,0,4.5,0,4.5,0h4.5c1.7,0,3,1.3,3,3v12v12c0,1.7,1.3,3,3,3h24h24c1.7,0,3-1.3,3-3V112v-2.5c0-1.7-1.3-3-3-3h-19.5h-19.5
			c-1.7,0-3-1.3-3-3V99v-4.5c0-1.7,1.3-3,3-3h5h5c1.7,0,3-1.3,3-3V86v-2.5c0-1.7-1.3-3-3-3h-11h-11c-1.7,0-3-1.3-3-3v-17v-17
			c0-1.7,1.3-3,3-3h7.5h7.5c1.7,0,3,1.3,3,3v4v4c0,1.7-1.3,3-3,3h-0.5h-0.5c-1.7,0-3,1.3-3,3V60v2.5c0,1.7,1.3,3,3,3h4h4
			c1.7,0,3-1.3,3-3V53v-9.5c0-1.7,1.3-3,3-3h4h4c1.7,0,3,1.3,3,3V53v9.5c0,1.7,1.3,3,3,3h4.5h4.5c1.7,0,3-1.3,3-3V60v-2.5
			c0-1.7-1.3-3-3-3h-1h-1c-1.7,0-3-1.3-3-3v-4v-4c0-1.7,1.3-3,3-3h8h8c1.7,0,3,1.3,3,3v17v17c0,1.7-1.3,3-3,3h-11.5h-11.5
			c-1.7,0-3,1.3-3,3V86v2.5c0,1.7,1.3,3,3,3h12h12c1.7,0,3,1.3,3,3V124v29.5c0,1.7-1.3,3-3,3h-27h-27c-1.7,0-3-1.3-3-3v-4v-4
			c0-1.7,1.3-3,3-3h19.5h19.5c1.7,0,3-1.3,3-3V137v-2.5c0-1.7-1.3-3-3-3h-24h-24c-1.7,0-3,1.3-3,3v10.7v12.4c0,0.8,0.4,1.5,0.9,2.1
			l3.8,3.9l3.8,3.9c0.5,0.6,1.3,0.9,2.1,0.9h28h26.3c1.7,0,3,1.3,3,3v4v4c0,1.7-1.3,3-3,3h-24.5h-24.5c-1.7,0-3,1.3-3,3v3v3
			c0,1.7,1.3,3,3,3h24.5h24.5c1.7,0,3,1.3,3,3v16.5v16.5c0,1.7-1.3,3-3,3h-24.5h-24.5c-1.7,0-3,1.3-3,3v3v3c0,1.7,1.3,3,3,3h24.5
			h24.5c1.7,0,3,1.3,3,3v4v4c0,1.7-1.3,3-3,3h-31.5h-31.5c-1.7,0-3-1.3-3-3v-17v-17c0-1.7,1.3-3,3-3h24.5h24.5c1.7,0,3-1.3,3-3v-2.5
			v-2.5c0-1.7-1.3-3-3-3h-24.5h-24.5c-1.7,0-3-1.3-3-3v-11.7c0-14.6,0.1-15.6-1.9-18C188.7,174.4,187.6,173.6,185.4,173.6z"/>
	</g>
</g>
</svg>
